<?xml version="1.0" standalone="no"?><!DOCTYPE svg PUBLIC "-//W3C//DTD SVG 1.1//EN" "http://www.w3.org/Graphics/SVG/1.1/DTD/svg11.dtd"><svg class="icon" width="200px" height="200.00px" viewBox="0 0 1024 1024" version="1.1" xmlns="http://www.w3.org/2000/svg"><path d="M861.625866 819.862693l0-58.639538 14.661931 0 0 58.639538L861.625866 819.862693 861.625866 819.862693zM861.625866 731.902362l0-58.639538 14.661931 0L876.287797 731.902362 861.625866 731.902362 861.625866 731.902362zM861.625866 585.302493l14.661931 0 0 58.639538-14.661931 0L861.625866 585.302493 861.625866 585.302493zM861.625866 497.342162l14.661931 0 0 58.639538-14.661931 0L861.625866 497.342162 861.625866 497.342162zM861.625866 409.377738 861.625866 409.377738l14.661931 0 0 58.639538-14.661931 0L861.625866 409.377738 861.625866 409.377738zM861.625866 321.417407l14.661931 0 0 58.639538-14.661931 0L861.625866 321.417407 861.625866 321.417407zM861.625866 233.457076 861.625866 233.457076l14.661931 0 0 58.639538-14.661931 0L861.625866 233.457076 861.625866 233.457076zM861.625866 145.496745l14.661931 0 0 58.639538-14.661931 0L861.625866 145.496745 861.625866 145.496745zM788.323373 145.496745l58.640562 0 0 14.661931-58.640562 0L788.323373 145.496745 788.323373 145.496745zM700.363042 145.496745l58.640562 0 0 14.661931-58.640562 0L700.363042 145.496745 700.363042 145.496745zM612.402711 145.496745l58.640562 0 0 14.661931-58.640562 0L612.402711 145.496745 612.402711 145.496745zM524.44238 145.496745l58.640562 0 0 14.661931-58.640562 0L524.44238 145.496745 524.44238 145.496745zM436.482049 145.496745l58.640562 0 0 14.661931-58.640562 0L436.482049 145.496745 436.482049 145.496745zM348.521718 145.496745l58.640562 0 0 14.661931L348.521718 160.158676 348.521718 145.496745 348.521718 145.496745zM260.557294 145.496745l58.640562 0 0 14.661931-58.640562 0L260.557294 145.496745 260.557294 145.496745zM172.596963 145.496745l58.640562 0 0 14.661931-58.640562 0L172.596963 145.496745 172.596963 145.496745zM172.596963 878.503255 143.277194 878.503255 143.277194 849.183486l14.661931 0 0 14.661931 14.657838 0L172.596963 878.503255 172.596963 878.503255zM143.277194 761.223155l14.661931 0 0 58.639538L143.277194 819.862693 143.277194 761.223155 143.277194 761.223155zM143.277194 673.262824l14.661931 0L157.939125 731.902362 143.277194 731.902362 143.277194 673.262824 143.277194 673.262824zM143.277194 585.302493l14.661931 0 0 58.639538L143.277194 643.942031 143.277194 585.302493 143.277194 585.302493zM143.277194 497.342162l14.661931 0 0 58.639538L143.277194 555.9817 143.277194 497.342162 143.277194 497.342162zM143.277194 409.377738l14.661931 0 0 58.639538L143.277194 468.017276 143.277194 409.377738 143.277194 409.377738zM143.277194 321.417407l14.661931 0 0 58.639538L143.277194 380.056945 143.277194 321.417407 143.277194 321.417407zM143.277194 233.457076 143.277194 233.457076l14.661931 0 0 58.639538L143.277194 292.096614 143.277194 233.457076 143.277194 233.457076zM143.277194 145.496745l14.661931 0 0 58.639538L143.277194 204.136284 143.277194 145.496745 143.277194 145.496745zM260.557294 878.503255l-58.639538 0 0-14.657838 58.639538 0L260.557294 878.503255 260.557294 878.503255zM348.521718 878.503255l-58.639538 0 0-14.657838 58.639538 0L348.521718 878.503255 348.521718 878.503255zM487.791645 365.399107l43.9817 0 0 124.612089 124.612089 0 0 43.9817L531.773346 533.992897l0 124.611066-43.9817 0L487.791645 533.992897 363.18058 533.992897l0-43.9817 124.611066 0L487.791645 365.399107 487.791645 365.399107zM436.482049 878.503255l-58.639538 0 0-14.657838 58.639538 0L436.482049 878.503255 436.482049 878.503255zM524.44238 878.503255 465.802842 878.503255l0-14.657838 58.639538 0L524.44238 878.503255 524.44238 878.503255zM612.402711 878.503255l-58.639538 0 0-14.657838 58.639538 0L612.402711 878.503255 612.402711 878.503255zM700.363042 878.503255l-58.639538 0 0-14.657838 58.639538 0L700.363042 878.503255 700.363042 878.503255zM788.323373 878.503255l-58.639538 0 0-14.657838 58.639538 0L788.323373 878.503255 788.323373 878.503255zM861.625866 849.183486l14.661931 0 0 29.319769-58.639538 0 0-14.657838 43.977607 0L861.625866 849.183486 861.625866 849.183486zM861.625866 849.183486" fill="#8a8a8a" /></svg>